<svg width="227" height="211" viewBox="0 0 227 211" fill="none" xmlns="http://www.w3.org/2000/svg">
<path d="M14.3707 126.288C20.6971 94.7306 26.9373 63.5898 33.197 32.4529C34.7692 24.6321 36.3296 16.8077 38.0336 9.01512C39.4274 2.64073 42.6106 0.137221 49.2787 0.119917C66.2725 0.0758799 83.2666 0.11128 100.261 0.112104C118.587 0.113019 136.921 -0.189623 155.239 0.195814C173.018 0.569868 190.519 2.90324 205.979 12.7397C226.257 25.6412 232.607 52.0921 221.048 74.5293C216.687 82.9946 210.472 89.7831 202.782 95.362C196.545 99.8866 195.683 104.815 201.619 109.214C225.329 126.782 220.711 171.388 195.741 189.354C180.733 200.153 163.899 205.761 145.907 208.491C136.189 209.965 126.397 210.491 116.554 210.467C81.8994 210.382 47.2448 210.444 12.5904 210.429C1.8435 210.424 -1.55327 205.838 0.626248 195.211C5.30475 172.401 9.75052 149.544 14.3707 126.288ZM96.6019 56.7372C87.9821 72.9033 79.3474 89.0616 70.7495 105.239C67.247 111.83 68.0761 113.634 75.1473 115.236C81.8046 116.744 88.4524 118.294 95.1124 119.79C103.036 121.57 104.353 124.317 100.83 131.799C94.5866 145.058 88.3375 158.314 82.1174 171.584C80.8533 174.281 79.9969 176.993 83.2506 179.031C86.3256 180.958 87.8853 178.383 89.5248 176.709C99.3145 166.71 109.01 156.619 118.751 146.573C131.158 133.776 143.579 120.993 155.992 108.201C157.627 106.517 159.474 104.806 158.71 102.169C157.837 99.1576 154.961 99.1148 152.566 98.7702C148.453 98.1786 144.304 97.791 140.157 97.4902C129.888 96.7453 127.864 92.6279 133.575 83.9421C141.994 71.1373 150.414 58.3326 158.823 45.5211C159.735 44.1312 160.871 42.6727 159.723 40.9577C158.605 39.2879 156.878 39.5908 155.19 39.9212C138.539 43.1805 121.885 46.4306 105.229 49.6682C101.373 50.4177 98.4542 52.339 96.6019 56.7372Z" fill="#FF1A43"/>
</svg>
