<svg width="237" height="221" viewBox="0 0 237 221" fill="none" xmlns="http://www.w3.org/2000/svg">
<path d="M105.26 2.6123C123.53 2.61322 141.939 2.31015 160.292 2.69629C178.215 3.0734 196.276 5.42268 212.321 15.6309C233.787 29.2886 240.366 57.1938 228.27 80.6738C223.706 89.5333 217.211 96.6097 209.25 102.386C206.33 104.504 205.26 106.314 205.121 107.604C205.002 108.704 205.498 110.272 208.107 112.205C220.878 121.668 225.784 138.201 224.425 154.345C223.066 170.504 215.399 186.887 202.201 196.384C186.789 207.473 169.551 213.191 151.281 215.963C141.406 217.461 131.482 217.991 121.547 217.967C86.8959 217.882 52.2509 217.944 17.5884 217.929C12.0111 217.926 7.44183 216.761 4.78467 213.335C2.15865 209.949 2.05425 205.179 3.17627 199.709C7.85271 176.909 12.2957 154.07 16.9185 130.801V130.796H16.9194C23.2458 99.2393 29.4858 68.0975 35.7456 36.96C37.3163 29.1468 38.8809 21.299 40.5903 13.4814C41.3508 10.0036 42.6914 7.14696 45.1284 5.22168C47.5543 3.30534 50.6668 2.62947 54.272 2.62012C71.27 2.57607 88.2733 2.61148 105.26 2.6123ZM162.378 47.1719C162.248 47.1566 162.048 47.1567 161.744 47.1924C161.435 47.2286 161.097 47.2913 160.669 47.375C144.017 50.6344 127.362 53.8843 110.706 57.1221C109.057 57.4425 107.757 57.9833 106.7 58.8066C105.649 59.6248 104.695 60.833 103.906 62.707L103.861 62.8125L103.807 62.9131C95.1858 79.082 86.5534 95.2373 77.9565 111.413C77.104 113.017 76.6057 114.167 76.3765 115.012C76.1494 115.848 76.2672 116.092 76.269 116.096C76.2736 116.106 76.2954 116.157 76.3989 116.25C76.5134 116.353 76.7205 116.502 77.0815 116.679C77.8311 117.045 78.9792 117.408 80.6987 117.798C87.3903 119.314 93.989 120.852 100.66 122.351C102.729 122.815 104.544 123.379 106.011 124.154C107.504 124.943 108.779 126.027 109.52 127.58C110.258 129.128 110.304 130.806 109.995 132.473C109.69 134.117 109.009 135.915 108.091 137.864C101.847 151.125 95.5993 164.378 89.3804 177.646C88.7455 179 88.472 179.869 88.4888 180.486C88.4954 180.73 88.5484 180.908 88.6538 181.08C88.7681 181.266 89.0167 181.561 89.5776 181.912C90.0511 182.209 90.2756 182.217 90.311 182.217C90.3365 182.217 90.4122 182.218 90.6001 182.101C90.8198 181.963 91.0925 181.726 91.4731 181.326C91.6597 181.13 91.8427 180.926 92.0571 180.689C92.2617 180.464 92.4951 180.208 92.7378 179.96C102.522 169.967 112.204 159.891 121.956 149.833C134.363 137.036 146.786 124.25 159.198 111.46C160.114 110.516 160.715 109.919 161.096 109.272C161.388 108.777 161.463 108.399 161.308 107.865C161.127 107.242 160.847 107.008 160.317 106.806C159.532 106.506 158.671 106.455 157.209 106.245C153.176 105.665 149.091 105.282 144.976 104.983C142.282 104.788 139.939 104.362 138.053 103.597C136.15 102.825 134.52 101.624 133.625 99.7891C132.733 97.9568 132.787 95.9296 133.342 93.9453C133.893 91.9765 134.989 89.8449 136.486 87.5684C144.905 74.7634 153.324 61.9599 161.733 49.1494C162.002 48.74 162.185 48.4764 162.37 48.1709C162.542 47.8859 162.631 47.6939 162.676 47.5605C162.694 47.5071 162.701 47.4732 162.704 47.4551C162.696 47.436 162.68 47.4007 162.645 47.3486C162.598 47.279 162.564 47.2422 162.546 47.2256C162.53 47.2097 162.522 47.2054 162.521 47.2051C162.52 47.2044 162.513 47.2008 162.496 47.1953C162.476 47.1893 162.439 47.179 162.378 47.1719Z" fill="#D1FF33" stroke="black" stroke-width="5"/>
</svg>
